<svg width="339" height="163" viewBox="0 0 339 163" fill="none" xmlns="http://www.w3.org/2000/svg">
<path fill-rule="evenodd" clip-rule="evenodd" d="M196.919 24.6493C196.919 39.7824 197.027 49.3636 197.198 49.4669C197.352 49.5595 210.244 49.7606 225.848 49.9141C252.84 50.1795 261.088 50.4302 264.046 51.0758C267.25 51.7757 271.54 54.23 275.499 57.6293C279.487 61.0526 282.111 64.3778 285.235 69.9633L286.85 72.8512L287.049 114.824C287.158 137.91 287.329 157.803 287.427 159.033L287.607 161.269H313.304H339L338.876 144.031C338.808 134.551 338.671 114.643 338.572 99.7924L338.392 72.7912L300.845 36.3955L263.299 0H230.109H196.919V24.6493ZM55.078 25.8204V50.4867L57.521 50.4934C76.2798 50.5438 116.804 51.1177 118.368 51.3548C127.744 52.7771 137.211 60.0581 141.675 69.2816C143.285 72.6068 143.825 74.6102 144.246 78.8109C144.46 80.9366 144.623 96.0038 144.714 121.962L144.853 161.846H170.294H195.734L195.729 117.49L195.723 73.1336L158.592 37.1438L121.46 1.15398H88.2691H55.078V25.8204ZM0 107.032V163H26.9468H53.8936V107.032V51.0637H26.9468H0V107.032Z" fill="#FF0000"/>
</svg>
