<svg width="539" height="322" viewBox="0 0 539 322" fill="none" xmlns="http://www.w3.org/2000/svg">
<path fill-rule="evenodd" clip-rule="evenodd" d="M388.61 48.6938C388.61 78.5885 388.822 97.5159 389.161 97.7199C389.464 97.9028 414.907 98.3 445.699 98.6032C498.967 99.1276 515.245 99.6228 521.081 100.898C527.406 102.281 535.871 107.129 543.685 113.844C551.554 120.607 556.733 127.176 562.897 138.21L566.084 143.915L566.477 226.831C566.692 272.435 567.029 311.734 567.224 314.164L567.579 318.581H618.29H669L668.755 284.528C668.621 265.799 668.351 226.473 668.156 197.136L667.8 143.796L593.704 71.8978L519.608 0H454.109H388.61V48.6938ZM108.694 51.0071V99.7345L113.515 99.7476C150.535 99.8474 230.507 100.981 233.593 101.449C252.097 104.259 270.779 118.642 279.589 136.863C282.765 143.432 283.832 147.389 284.663 155.688C285.085 159.887 285.406 189.652 285.585 240.93L285.861 319.72H336.067H386.272L386.261 232.096L386.249 144.473L312.973 73.3761L239.696 2.27965H174.195H108.694V51.0071ZM0 211.437V322H53.1782H106.356V211.437V100.874H53.1782H0V211.437Z" fill="#B5B5B5"/>
</svg>
